<?xml version="1.0" encoding="UTF-8"?> <!-- Generator: Adobe Illustrator 23.0.3, SVG Export Plug-In . SVG Version: 6.00 Build 0) --> <svg xmlns="http://www.w3.org/2000/svg" xmlns:xlink="http://www.w3.org/1999/xlink" id="Layer_1" x="0px" y="0px" viewBox="0 0 706 123.5" style="enable-background:new 0 0 706 123.5;" xml:space="preserve"> <style type="text/css"> .st0{fill:#FFFFFF;} .st1{fill:#A2BD30;} .st2{fill:#B5CA59;} </style> <g> <g> <g> <path class="st0" d="M624.1,93.8c0.8-0.4,1.6-1,2.2-1.7l-1.7-1.5c-0.5,0.5-1,0.9-1.6,1.1c-0.5,0.3-1.2,0.4-1.9,0.4 c-1,0-1.8-0.3-2.4-0.8c-0.7-0.6-1.1-1.4-1.2-2.4h9.4c0-0.1,0-0.3,0-0.4s0-0.3,0-0.4c0-0.9-0.1-1.8-0.4-2.6 c-0.3-0.8-0.6-1.6-1.2-2.2c-0.5-0.6-1.1-1.1-1.9-1.5c-0.8-0.4-1.7-0.6-2.7-0.6c-0.9,0-1.8,0.2-2.5,0.5c-0.8,0.3-1.4,0.8-2,1.4 s-1,1.3-1.3,2.1c-0.3,0.8-0.5,1.7-0.5,2.6l0,0c0,1,0.2,1.9,0.5,2.7c0.3,0.8,0.8,1.5,1.4,2.1c0.6,0.6,1.3,1,2.1,1.4 c0.8,0.3,1.7,0.5,2.6,0.5C622.2,94.4,623.2,94.2,624.1,93.8 M617.4,86.8c0.1-1,0.5-1.8,1.1-2.4s1.3-0.9,2.2-0.9 c0.5,0,0.9,0.1,1.3,0.3c0.4,0.2,0.7,0.4,1,0.7c0.3,0.3,0.5,0.7,0.7,1.1s0.3,0.9,0.3,1.3L617.4,86.8L617.4,86.8z M609.4,93.7 c0.8-0.4,1.5-1,2.2-1.7l-1.8-1.7c-0.5,0.5-1,0.9-1.5,1.2c-0.5,0.3-1.1,0.4-1.8,0.4c-0.6,0-1.1-0.1-1.6-0.3 c-0.5-0.2-0.9-0.5-1.2-0.9s-0.6-0.8-0.8-1.3s-0.3-1-0.3-1.6l0,0c0-0.5,0.1-1.1,0.3-1.6s0.4-0.9,0.8-1.3c0.3-0.4,0.7-0.7,1.2-0.9 c0.5-0.2,0.9-0.3,1.5-0.3c0.7,0,1.4,0.1,1.9,0.4s1,0.7,1.4,1.2l1.8-2c-0.6-0.7-1.3-1.2-2.1-1.6s-1.8-0.6-3-0.6 c-1,0-1.8,0.2-2.7,0.5c-0.8,0.4-1.5,0.8-2.1,1.4s-1.1,1.3-1.4,2.1c-0.3,0.8-0.5,1.7-0.5,2.6l0,0c0,0.9,0.2,1.8,0.5,2.6 c0.3,0.8,0.8,1.5,1.4,2.1c0.6,0.6,1.3,1.1,2.1,1.4s1.7,0.5,2.6,0.5C607.5,94.4,608.5,94.2,609.4,93.7 M584.3,94.1h3v-7.2 c0-1,0.3-1.8,0.8-2.3c0.5-0.6,1.2-0.8,2.1-0.8c0.9,0,1.5,0.3,2,0.8s0.7,1.3,0.7,2.3v7.3h3V86c0-1.5-0.4-2.7-1.2-3.6 s-1.9-1.3-3.4-1.3c-0.5,0-0.9,0.1-1.3,0.2c-0.4,0.1-0.8,0.3-1.1,0.5s-0.6,0.5-0.9,0.7c-0.3,0.3-0.5,0.6-0.7,0.9v-2h-3L584.3,94.1 L584.3,94.1z M577.6,93.8c0.8-0.4,1.6-1,2.2-1.7l-1.7-1.5c-0.5,0.5-1,0.9-1.6,1.1c-0.5,0.3-1.2,0.4-1.9,0.4c-1,0-1.8-0.3-2.4-0.8 c-0.7-0.6-1.1-1.4-1.2-2.4h9.4c0-0.1,0-0.3,0-0.4s0-0.3,0-0.4c0-0.9-0.1-1.8-0.4-2.6c-0.3-0.8-0.6-1.6-1.2-2.2 c-0.5-0.6-1.1-1.1-1.9-1.5c-0.8-0.4-1.7-0.6-2.7-0.6c-0.9,0-1.8,0.2-2.5,0.5c-0.8,0.3-1.4,0.8-2,1.4s-1,1.3-1.3,2.1 c-0.3,0.8-0.5,1.7-0.5,2.6l0,0c0,1,0.2,1.9,0.5,2.7c0.3,0.8,0.8,1.5,1.4,2.1c0.6,0.6,1.3,1,2.1,1.4c0.8,0.3,1.7,0.5,2.6,0.5 C575.7,94.4,576.7,94.2,577.6,93.8 M570.9,86.8c0.1-1,0.5-1.8,1.1-2.4s1.3-0.9,2.2-0.9c0.5,0,0.9,0.1,1.3,0.3 c0.4,0.2,0.7,0.4,1,0.7c0.3,0.3,0.5,0.7,0.7,1.1s0.3,0.9,0.3,1.3L570.9,86.8L570.9,86.8z M560.9,94.1h3V76.4h-3V94.1z M553,94.1 h3V76.4h-3V94.1z M546.1,93.8c0.8-0.4,1.6-1,2.2-1.7l-1.7-1.5c-0.5,0.5-1,0.9-1.6,1.1c-0.5,0.3-1.2,0.4-1.9,0.4 c-1,0-1.8-0.3-2.4-0.8c-0.7-0.6-1.1-1.4-1.2-2.4h9.4c0-0.1,0-0.3,0-0.4s0-0.3,0-0.4c0-0.9-0.1-1.8-0.4-2.6 c-0.3-0.8-0.6-1.6-1.2-2.2c-0.5-0.6-1.1-1.1-1.9-1.5c-0.8-0.4-1.7-0.6-2.7-0.6c-0.9,0-1.8,0.2-2.5,0.5c-0.8,0.3-1.4,0.8-2,1.4 s-1,1.3-1.3,2.1c-0.3,0.8-0.5,1.7-0.5,2.6l0,0c0,1,0.2,1.9,0.5,2.7c0.3,0.8,0.8,1.5,1.4,2.1c0.6,0.6,1.3,1,2.1,1.4 c0.8,0.3,1.7,0.5,2.6,0.5C544.3,94.4,545.3,94.2,546.1,93.8 M539.4,86.8c0.1-1,0.5-1.8,1.1-2.4s1.3-0.9,2.2-0.9 c0.5,0,0.9,0.1,1.3,0.3c0.4,0.2,0.7,0.4,1,0.7c0.3,0.3,0.5,0.7,0.7,1.1s0.3,0.9,0.3,1.3L539.4,86.8L539.4,86.8z M531.4,93.7 c0.8-0.4,1.5-1,2.2-1.7l-1.8-1.7c-0.5,0.5-1,0.9-1.5,1.2c-0.5,0.3-1.1,0.4-1.8,0.4c-0.6,0-1.1-0.1-1.6-0.3 c-0.5-0.2-0.9-0.5-1.2-0.9s-0.6-0.8-0.8-1.3s-0.3-1-0.3-1.6l0,0c0-0.5,0.1-1.1,0.3-1.6s0.4-0.9,0.8-1.3c0.3-0.4,0.7-0.7,1.2-0.9 c0.5-0.2,0.9-0.3,1.5-0.3c0.7,0,1.4,0.1,1.9,0.4s1,0.7,1.4,1.2l1.8-2c-0.6-0.7-1.3-1.2-2.1-1.6s-1.8-0.6-3-0.6 c-1,0-1.8,0.2-2.7,0.5c-0.8,0.4-1.5,0.8-2.1,1.4s-1.1,1.3-1.4,2.1c-0.3,0.8-0.5,1.7-0.5,2.6l0,0c0,0.9,0.2,1.8,0.5,2.6 c0.3,0.8,0.8,1.5,1.4,2.1c0.6,0.6,1.3,1.1,2.1,1.4s1.7,0.5,2.6,0.5C529.6,94.4,530.6,94.2,531.4,93.7 M506.2,94.1h3.1l3.1-4.5 l3.2,4.5h3.2l-4.7-6.6l4.5-6.2h-3.1l-3,4.2l-3-4.2h-3.2l4.5,6.3L506.2,94.1z M500.6,93.8c0.8-0.4,1.6-1,2.2-1.7l-1.7-1.5 c-0.5,0.5-1,0.9-1.6,1.1c-0.5,0.3-1.2,0.4-1.9,0.4c-1,0-1.8-0.3-2.4-0.8c-0.7-0.6-1.1-1.4-1.3-2.4h9.4c0-0.1,0-0.3,0-0.4 s0-0.3,0-0.4c0-0.9-0.1-1.8-0.4-2.6c-0.3-0.8-0.6-1.6-1.2-2.2c-0.5-0.6-1.1-1.1-1.9-1.5s-1.7-0.6-2.7-0.6c-0.9,0-1.8,0.2-2.5,0.5 c-0.8,0.3-1.4,0.8-2,1.4s-1,1.3-1.3,2.1c-0.3,0.8-0.5,1.7-0.5,2.6l0,0c0,1,0.2,1.9,0.5,2.7c0.3,0.8,0.8,1.5,1.4,2.1 s1.3,1,2.1,1.4c0.8,0.3,1.7,0.5,2.6,0.5C498.8,94.4,499.8,94.2,500.6,93.8 M493.9,86.8c0.1-1,0.5-1.8,1.1-2.4s1.3-0.9,2.2-0.9 c0.5,0,0.9,0.1,1.3,0.3c0.4,0.2,0.7,0.4,1,0.7c0.3,0.3,0.5,0.7,0.7,1.1s0.3,0.9,0.3,1.3L493.9,86.8L493.9,86.8z M471.9,93.8 c0.8-0.4,1.6-1,2.2-1.7l-1.7-1.5c-0.5,0.5-1,0.9-1.6,1.1c-0.5,0.3-1.2,0.4-1.9,0.4c-1,0-1.8-0.3-2.4-0.8 c-0.7-0.6-1.1-1.4-1.3-2.4h9.4c0-0.1,0-0.3,0-0.4s0-0.3,0-0.4c0-0.9-0.1-1.8-0.4-2.6c-0.3-0.8-0.6-1.6-1.2-2.2 c-0.5-0.6-1.1-1.1-1.9-1.5s-1.7-0.6-2.7-0.6c-0.9,0-1.8,0.2-2.5,0.5c-0.8,0.3-1.4,0.8-2,1.4s-1,1.3-1.3,2.1 c-0.3,0.8-0.5,1.7-0.5,2.6l0,0c0,1,0.2,1.9,0.5,2.7c0.3,0.8,0.8,1.5,1.4,2.1s1.3,1,2.1,1.4c0.8,0.3,1.7,0.5,2.6,0.5 C470,94.4,471,94.2,471.9,93.8 M465.2,86.8c0.1-1,0.5-1.8,1.1-2.4s1.3-0.9,2.2-0.9c0.5,0,0.9,0.1,1.3,0.3c0.4,0.2,0.7,0.4,1,0.7 c0.3,0.3,0.5,0.7,0.7,1.1s0.3,0.9,0.3,1.3L465.2,86.8L465.2,86.8z M451.6,94.2h2.6l5.2-12.9h-3.1l-3.5,9.4l-3.4-9.4h-3.2 L451.6,94.2z M440.8,93.8c0.8-0.4,1.6-1,2.2-1.7l-1.7-1.5c-0.5,0.5-1,0.9-1.6,1.1c-0.5,0.3-1.2,0.4-1.9,0.4c-1,0-1.8-0.3-2.4-0.8 c-0.7-0.6-1.1-1.4-1.3-2.4h9.4c0-0.1,0-0.3,0-0.4s0-0.3,0-0.4c0-0.9-0.1-1.8-0.4-2.6c-0.3-0.8-0.6-1.6-1.2-2.2 c-0.5-0.6-1.1-1.1-1.9-1.5s-1.7-0.6-2.7-0.6c-0.9,0-1.8,0.2-2.5,0.5c-0.8,0.3-1.4,0.8-2,1.4s-1,1.3-1.3,2.1 c-0.3,0.8-0.5,1.7-0.5,2.6l0,0c0,1,0.2,1.9,0.5,2.7c0.3,0.8,0.8,1.5,1.4,2.1s1.3,1,2.1,1.4c0.8,0.3,1.7,0.5,2.6,0.5 C439,94.4,440,94.2,440.8,93.8 M434.1,86.8c0.1-1,0.5-1.8,1.1-2.4s1.3-0.9,2.2-0.9c0.5,0,0.9,0.1,1.3,0.3c0.4,0.2,0.7,0.4,1,0.7 c0.3,0.3,0.5,0.7,0.7,1.1s0.3,0.9,0.3,1.3L434.1,86.8L434.1,86.8z M424,79.3h3.2v-2.8H424V79.3z M424.2,94.1h3V81.3h-3V94.1z M408,94.1h3v-7.2c0-1,0.3-1.8,0.8-2.3c0.5-0.6,1.2-0.8,2.1-0.8s1.5,0.3,2,0.8s0.7,1.3,0.7,2.3v7.3h3V86c0-1.5-0.4-2.7-1.2-3.6 c-0.8-0.9-1.9-1.3-3.4-1.3c-0.5,0-0.9,0.1-1.3,0.2s-0.8,0.3-1.1,0.5c-0.3,0.2-0.6,0.5-0.9,0.7c-0.3,0.3-0.5,0.6-0.7,0.9v-6.9h-3 V94.1z M402.2,93.7c0.8-0.4,1.5-1,2.2-1.7l-1.8-1.7c-0.5,0.5-1,0.9-1.5,1.2c-0.5,0.3-1.1,0.4-1.8,0.4c-0.6,0-1.1-0.1-1.6-0.3 c-0.5-0.2-0.9-0.5-1.2-0.9c-0.3-0.4-0.6-0.8-0.8-1.3c-0.2-0.5-0.3-1-0.3-1.6l0,0c0-0.5,0.1-1.1,0.3-1.6c0.2-0.5,0.4-0.9,0.8-1.3 c0.3-0.4,0.7-0.7,1.2-0.9c0.5-0.2,0.9-0.3,1.5-0.3c0.7,0,1.4,0.1,1.9,0.4s1,0.7,1.4,1.2l1.8-2c-0.6-0.7-1.3-1.2-2.1-1.6 c-0.8-0.4-1.8-0.6-3-0.6c-1,0-1.8,0.2-2.7,0.5c-0.8,0.4-1.5,0.8-2.1,1.4s-1.1,1.3-1.4,2.1c-0.3,0.8-0.5,1.7-0.5,2.6l0,0 c0,0.9,0.2,1.8,0.5,2.6c0.3,0.8,0.8,1.5,1.4,2.1s1.3,1.1,2.1,1.4c0.8,0.3,1.7,0.5,2.6,0.5C400.3,94.4,401.4,94.2,402.2,93.7 M388.7,94.1v-7.6c0-1.7-0.5-3-1.4-4c-0.9-0.9-2.3-1.4-4.2-1.4c-1.1,0-2,0.1-2.7,0.3c-0.7,0.2-1.5,0.5-2.2,0.8l0.8,2.4 c0.6-0.2,1.2-0.4,1.7-0.6c0.6-0.1,1.2-0.2,1.9-0.2c1,0,1.8,0.2,2.3,0.7s0.8,1.1,0.8,2v0.2c-0.5-0.2-1-0.3-1.6-0.4 c-0.5-0.1-1.2-0.1-2-0.1c-0.7,0-1.4,0.1-2.1,0.3c-0.6,0.2-1.2,0.4-1.7,0.8c-0.5,0.3-0.8,0.8-1.1,1.3c-0.3,0.5-0.4,1.1-0.4,1.9 l0,0c0,0.6,0.1,1.2,0.4,1.7s0.6,0.9,1,1.2c0.4,0.3,0.9,0.6,1.4,0.8c0.6,0.2,1.1,0.3,1.7,0.3c1,0,1.8-0.2,2.5-0.5 c0.7-0.4,1.2-0.8,1.7-1.3v1.6h3.2V94.1z M385.8,89.5c0,0.4-0.1,0.8-0.3,1.1c-0.2,0.3-0.4,0.6-0.7,0.8c-0.3,0.2-0.7,0.4-1.1,0.5 s-0.9,0.2-1.3,0.2c-0.7,0-1.3-0.2-1.8-0.5s-0.7-0.8-0.7-1.4l0,0c0-0.6,0.3-1.1,0.8-1.5s1.2-0.5,2.2-0.5c0.6,0,1.1,0,1.6,0.1 s1,0.2,1.3,0.4V89.5z M348.8,94.1h3v-7.2c0-1,0.3-1.8,0.8-2.3c0.5-0.6,1.2-0.8,2.1-0.8s1.5,0.3,2,0.8s0.7,1.3,0.7,2.3v7.3h3V86 c0-1.5-0.4-2.7-1.2-3.6c-0.8-0.9-1.9-1.3-3.4-1.3c-0.5,0-0.9,0.1-1.3,0.2s-0.8,0.3-1.1,0.5c-0.3,0.2-0.6,0.5-0.9,0.7 c-0.3,0.3-0.5,0.6-0.7,0.9v-2h-3V94.1z M344.3,94.1v-7.6c0-1.7-0.5-3-1.4-4c-0.9-0.9-2.3-1.4-4.2-1.4c-1.1,0-2,0.1-2.7,0.3 c-0.7,0.2-1.5,0.5-2.2,0.8l0.8,2.4c0.6-0.2,1.2-0.4,1.7-0.6c0.6-0.1,1.2-0.2,1.9-0.2c1,0,1.8,0.2,2.3,0.7s0.8,1.1,0.8,2v0.2 c-0.5-0.2-1-0.3-1.6-0.4c-0.5-0.1-1.2-0.1-2-0.1c-0.7,0-1.4,0.1-2.1,0.3c-0.6,0.2-1.2,0.4-1.6,0.8c-0.5,0.3-0.8,0.8-1.1,1.3 c-0.3,0.5-0.4,1.1-0.4,1.9l0,0c0,0.6,0.1,1.2,0.4,1.7s0.6,0.9,1,1.2c0.4,0.3,0.9,0.6,1.4,0.8c0.5,0.2,1.1,0.3,1.7,0.3 c1,0,1.8-0.2,2.5-0.5c0.7-0.4,1.2-0.8,1.7-1.3v1.6h3.1V94.1z M341.5,89.5c0,0.4-0.1,0.8-0.3,1.1c-0.2,0.3-0.4,0.6-0.7,0.8 c-0.3,0.2-0.7,0.4-1.1,0.5s-0.9,0.2-1.3,0.2c-0.7,0-1.3-0.2-1.8-0.5s-0.7-0.8-0.7-1.4l0,0c0-0.6,0.3-1.1,0.8-1.5s1.2-0.5,2.2-0.5 c0.6,0,1.1,0,1.6,0.1s0.9,0.2,1.3,0.4V89.5z M327.8,93.7c0.8-0.4,1.5-1,2.2-1.7l-1.8-1.7c-0.5,0.5-1,0.9-1.5,1.2 c-0.5,0.3-1.1,0.4-1.8,0.4c-0.6,0-1.1-0.1-1.6-0.3c-0.5-0.2-0.9-0.5-1.2-0.9c-0.3-0.4-0.6-0.8-0.8-1.3c-0.2-0.5-0.3-1-0.3-1.6 l0,0c0-0.5,0.1-1.1,0.3-1.6c0.2-0.5,0.4-0.9,0.8-1.3c0.3-0.4,0.7-0.7,1.2-0.9c0.5-0.2,0.9-0.3,1.5-0.3c0.7,0,1.4,0.1,1.9,0.4 s1,0.7,1.4,1.2l1.8-2c-0.6-0.7-1.3-1.2-2.1-1.6c-0.8-0.4-1.8-0.6-3-0.6c-1,0-1.8,0.2-2.7,0.5c-0.8,0.4-1.5,0.8-2.1,1.4 s-1.1,1.3-1.4,2.1c-0.3,0.8-0.5,1.7-0.5,2.6l0,0c0,0.9,0.2,1.8,0.5,2.6c0.3,0.8,0.8,1.5,1.4,2.1s1.3,1.1,2.1,1.4 c0.8,0.3,1.7,0.5,2.6,0.5C325.9,94.4,327,94.2,327.8,93.7 M298.9,93.8c0.8-0.4,1.6-1,2.2-1.7l-1.7-1.5c-0.5,0.5-1,0.9-1.6,1.1 c-0.5,0.3-1.2,0.4-1.9,0.4c-1,0-1.8-0.3-2.4-0.8c-0.7-0.6-1.1-1.4-1.2-2.4h9.4c0-0.1,0-0.3,0-0.4s0-0.3,0-0.4 c0-0.9-0.1-1.8-0.4-2.6c-0.3-0.8-0.6-1.6-1.2-2.2c-0.5-0.6-1.2-1.1-1.9-1.5c-0.8-0.4-1.7-0.6-2.7-0.6c-0.9,0-1.8,0.2-2.5,0.5 c-0.8,0.3-1.4,0.8-2,1.4s-1,1.3-1.3,2.1c-0.3,0.8-0.5,1.7-0.5,2.6l0,0c0,1,0.2,1.9,0.5,2.7c0.3,0.8,0.8,1.5,1.4,2.1 s1.3,1,2.1,1.4c0.8,0.3,1.7,0.5,2.6,0.5C297.1,94.4,298.1,94.2,298.9,93.8 M292.2,86.8c0.1-1,0.5-1.8,1.1-2.4s1.3-0.9,2.2-0.9 c0.5,0,0.9,0.1,1.3,0.3c0.4,0.2,0.7,0.4,1,0.7c0.3,0.3,0.5,0.7,0.7,1.1s0.3,0.9,0.3,1.3L292.2,86.8L292.2,86.8z M271.2,94.2h2.6 l2.9-8.8l2.9,8.8h2.6l4.2-12.9h-2.9l-2.6,8.8l-2.9-8.8h-2.5l-2.8,8.8l-2.6-8.8h-3L271.2,94.2z M244,94.1h3v-4.9 c0-0.8,0.1-1.6,0.3-2.2s0.5-1.2,0.9-1.6s0.8-0.7,1.4-0.9c0.5-0.2,1.1-0.3,1.8-0.3h0.2v-3.1c-1.1,0-2.1,0.2-2.8,0.8 c-0.7,0.6-1.3,1.4-1.7,2.3v-2.9h-3L244,94.1L244,94.1z M237.3,93.8c0.8-0.4,1.6-1,2.2-1.7l-1.7-1.5c-0.5,0.5-1,0.9-1.6,1.1 c-0.5,0.3-1.2,0.4-1.9,0.4c-1,0-1.8-0.3-2.4-0.8c-0.7-0.6-1.1-1.4-1.3-2.4h9.4c0-0.1,0-0.3,0-0.4s0-0.3,0-0.4 c0-0.9-0.1-1.8-0.4-2.6c-0.3-0.8-0.6-1.6-1.2-2.2c-0.5-0.6-1.1-1.1-1.9-1.5c-0.8-0.4-1.7-0.6-2.7-0.6c-0.9,0-1.8,0.2-2.5,0.5 c-0.8,0.3-1.4,0.8-2,1.4s-1,1.3-1.3,2.1c-0.3,0.8-0.5,1.7-0.5,2.6l0,0c0,1,0.2,1.9,0.5,2.7c0.3,0.8,0.8,1.5,1.4,2.1 c0.6,0.6,1.3,1,2.1,1.4c0.8,0.3,1.7,0.5,2.6,0.5C235.4,94.4,236.5,94.2,237.3,93.8 M230.6,86.8c0.1-1,0.5-1.8,1.1-2.4 s1.3-0.9,2.2-0.9c0.5,0,0.9,0.1,1.3,0.3c0.4,0.2,0.7,0.4,1,0.7c0.3,0.3,0.5,0.7,0.7,1.1s0.3,0.9,0.3,1.3L230.6,86.8L230.6,86.8z M212.4,94.1h3v-7.2c0-1,0.3-1.8,0.8-2.3c0.5-0.6,1.2-0.8,2.1-0.8c0.9,0,1.5,0.3,2,0.8s0.7,1.3,0.7,2.3v7.3h3V86 c0-1.5-0.4-2.7-1.2-3.6s-1.9-1.3-3.4-1.3c-0.5,0-0.9,0.1-1.3,0.2c-0.4,0.1-0.8,0.3-1.1,0.5s-0.6,0.5-0.9,0.7 c-0.2,0.3-0.5,0.6-0.7,0.9v-6.9h-3L212.4,94.1L212.4,94.1z M207.2,94.2c0.4-0.1,0.8-0.3,1.2-0.5v-2.4c-0.6,0.3-1.2,0.4-1.8,0.4 c-0.5,0-0.9-0.1-1.2-0.4s-0.4-0.7-0.4-1.2v-6.3h3.4v-2.5H205v-3.5h-3v3.5h-1.6v2.5h1.6v6.7c0,0.7,0.1,1.3,0.3,1.8 s0.4,0.9,0.8,1.2c0.3,0.3,0.7,0.5,1.2,0.6s1,0.2,1.5,0.2C206.3,94.3,206.8,94.3,207.2,94.2 M194.7,93.8c0.8-0.4,1.6-1,2.2-1.7 l-1.7-1.5c-0.5,0.5-1,0.9-1.6,1.1c-0.5,0.3-1.2,0.4-1.9,0.4c-1,0-1.8-0.3-2.4-0.8c-0.7-0.6-1.1-1.4-1.3-2.4h9.4 c0-0.1,0-0.3,0-0.4s0-0.3,0-0.4c0-0.9-0.1-1.8-0.4-2.6c-0.3-0.8-0.6-1.6-1.2-2.2c-0.5-0.6-1.1-1.1-1.9-1.5 c-0.8-0.4-1.7-0.6-2.7-0.6c-0.9,0-1.8,0.2-2.5,0.5c-0.8,0.3-1.4,0.8-2,1.4s-1,1.3-1.3,2.1c-0.3,0.8-0.5,1.7-0.5,2.6l0,0 c0,1,0.2,1.9,0.5,2.7c0.3,0.8,0.8,1.5,1.4,2.1c0.6,0.6,1.3,1,2.1,1.4c0.8,0.3,1.7,0.5,2.6,0.5C192.9,94.4,193.9,94.2,194.7,93.8 M188,86.8c0.1-1,0.5-1.8,1.1-2.4s1.3-0.9,2.2-0.9c0.5,0,0.9,0.1,1.3,0.3c0.4,0.2,0.7,0.4,1,0.7c0.3,0.3,0.5,0.7,0.7,1.1 s0.3,0.9,0.3,1.3L188,86.8L188,86.8z M177.4,97.6c0.9-0.3,1.6-0.7,2.2-1.3c1.1-1.1,1.6-2.7,1.6-4.8V81.3h-2.9v1.9 c-0.5-0.6-1.1-1.1-1.8-1.5s-1.6-0.6-2.7-0.6c-0.7,0-1.5,0.1-2.2,0.4s-1.3,0.7-1.9,1.2c-0.5,0.5-1,1.1-1.3,1.9s-0.5,1.6-0.5,2.5 l0,0c0,0.9,0.2,1.8,0.5,2.5s0.8,1.4,1.3,1.9s1.2,0.9,1.9,1.2c0.7,0.3,1.4,0.4,2.2,0.4c1.1,0,1.9-0.2,2.6-0.7 c0.7-0.4,1.3-1,1.9-1.7v1c0,1.3-0.3,2.3-1,3s-1.7,1-3,1c-0.9,0-1.7-0.1-2.4-0.4c-0.7-0.2-1.5-0.6-2.1-1l-1.1,2.2 c1.7,1,3.6,1.5,5.7,1.5C175.4,98,176.5,97.9,177.4,97.6 M173.1,90.4c-0.4-0.2-0.8-0.4-1.2-0.7c-0.3-0.3-0.6-0.7-0.8-1.1 s-0.3-0.9-0.3-1.4l0,0c0-0.5,0.1-1,0.3-1.4s0.4-0.8,0.8-1.1c0.3-0.3,0.7-0.5,1.2-0.7c0.4-0.2,0.9-0.3,1.4-0.3s1,0.1,1.4,0.3 c0.5,0.2,0.9,0.4,1.2,0.7s0.6,0.7,0.8,1.1s0.3,0.9,0.3,1.4l0,0c0,0.5-0.1,1-0.3,1.4s-0.5,0.8-0.8,1.1s-0.7,0.6-1.2,0.7 c-0.5,0.2-0.9,0.3-1.4,0.3C174,90.6,173.5,90.5,173.1,90.4 M160.5,93.9c0.8-0.4,1.6-0.8,2.2-1.4c0.6-0.6,1.1-1.3,1.4-2.1 c0.3-0.8,0.5-1.7,0.5-2.6l0,0c0-0.9-0.2-1.8-0.5-2.6c-0.3-0.8-0.8-1.5-1.4-2.1c-0.6-0.6-1.3-1.1-2.2-1.4 c-0.8-0.3-1.7-0.5-2.7-0.5s-1.9,0.2-2.7,0.5c-0.8,0.4-1.6,0.8-2.2,1.4c-0.6,0.6-1.1,1.3-1.4,2.1c-0.3,0.8-0.5,1.7-0.5,2.6l0,0 c0,0.9,0.2,1.8,0.5,2.6c0.3,0.8,0.8,1.5,1.4,2.1c0.6,0.6,1.3,1.1,2.2,1.4c0.8,0.3,1.7,0.5,2.7,0.5 C158.7,94.4,159.7,94.2,160.5,93.9 M156.2,91.5c-0.5-0.2-0.9-0.5-1.2-0.9s-0.6-0.8-0.8-1.3s-0.3-1-0.3-1.6l0,0 c0-0.5,0.1-1.1,0.3-1.6s0.4-0.9,0.8-1.3c0.3-0.4,0.7-0.7,1.2-0.9c0.5-0.2,1-0.3,1.6-0.3s1.1,0.1,1.6,0.3c0.5,0.2,0.9,0.5,1.2,0.9 s0.6,0.8,0.8,1.3s0.3,1,0.3,1.6l0,0c0,0.6-0.1,1.1-0.3,1.6s-0.4,0.9-0.8,1.3c-0.3,0.4-0.7,0.7-1.2,0.9c-0.5,0.2-1,0.3-1.6,0.3 C157.2,91.9,156.7,91.7,156.2,91.5 M139.5,94.1h3V79.9h5.4v-2.8h-13.8v2.8h5.4L139.5,94.1L139.5,94.1z"></path> </g> <path class="st1" d="M591.6,65.6l4-22.5l10.8,24.3l11-24.2l3.6,22.5h5.8l-7-40.1l-13.2,29l-12.8-29L586,65.7L591.6,65.6 L591.6,65.6z M550.6,28.3v24c0,4.9,1.8,8.7,5.5,11.4c2.5,1.8,5.2,2.6,8.2,2.6c2.1,0,4.2-0.5,6.1-1.4c1.9-0.9,3.6-2.2,4.9-3.9 c1.9-2.4,2.8-5.3,2.8-8.8v-24h-5.6v22.4c0,1.7-0.1,2.9-0.3,3.9c-0.2,0.9-0.5,1.8-0.9,2.5c-0.7,1.2-1.6,2.1-2.9,2.8 c-1.3,0.7-2.6,1-4.1,1c-1.6,0-3.1-0.4-4.5-1.3c-1.1-0.7-1.9-1.5-2.5-2.6c-0.4-0.8-0.7-1.6-0.9-2.5s-0.3-2.2-0.3-3.9V28.3H550.6z M545.5,33.6v-5.3h-22.7v5.3h8.6v32h5.6v-32H545.5z M490.6,65.6V39.5l27.2,28.4V28.3h-5.6v25.9L485,25.7v39.8L490.6,65.6 L490.6,65.6z M456.6,51.2l5.8-12.7l5.5,12.7H456.6z M474.2,65.6h6.1L462.5,26L444,65.6h6.1l4.2-9.1h15.9L474.2,65.6z M413.5,28.3 v24c0,4.9,1.8,8.7,5.5,11.4c2.5,1.8,5.2,2.6,8.2,2.6c2.1,0,4.2-0.5,6.1-1.4s3.6-2.2,4.9-3.9c1.9-2.4,2.8-5.3,2.8-8.8v-24h-5.6 v22.4c0,1.7-0.1,2.9-0.3,3.9c-0.2,0.9-0.5,1.8-0.9,2.5c-0.7,1.2-1.6,2.1-2.9,2.8s-2.6,1-4.1,1c-1.6,0-3.1-0.4-4.5-1.3 c-1.1-0.7-1.9-1.5-2.5-2.6c-0.4-0.8-0.7-1.6-0.9-2.5c-0.2-0.9-0.3-2.2-0.3-3.9V28.3H413.5z M384.5,50.8l8.7,8.5 c-2,1.1-4.2,1.7-6.6,1.7c-3.6,0-6.8-1.3-9.5-4c-2.7-2.5-4-5.8-4-9.9c0-2.7,0.6-5.1,1.7-7.2c1.1-2,2.5-3.6,4.4-4.9 c2.3-1.5,4.8-2.2,7.6-2.2c3.8,0,7.1,1.3,9.8,4c2.7,2.7,4.1,6.1,4.1,10.1c0,2.3-0.4,4.3-1.3,6.1c-0.5,1-1.2,2-2.3,3.1l-5.4-5.4 h-7.2V50.8z M401.1,60.2c1.9-1.9,3.2-3.9,4.1-6c0.8-2,1.3-4.3,1.3-6.9c0-3.6-0.9-7-2.6-10c-1.8-3.2-4.4-5.7-7.8-7.5 c-2.9-1.5-5.9-2.3-9.1-2.3c-2.1,0-4.3,0.4-6.3,1.1c-2.7,0.9-5.1,2.4-7.2,4.4c-3.9,3.8-5.9,8.4-5.9,14c0,3.2,0.7,6.2,2.1,8.8 c1.7,3.3,4.3,6,7.8,7.9c3,1.7,6.2,2.5,9.5,2.5c3.8,0,7.2-1,10.4-3l2.9,3h7.1L401.1,60.2z M348,28.3h-20.6v37.3H348v-5.3h-15V47.8 h14.5v-5.3H333v-8.9h15V28.3z M289.6,28.3L306,68.4l16.7-40.1h-6.1l-10.5,25.8l-10.3-25.8C295.8,28.3,289.6,28.3,289.6,28.3z M279.4,65.6h5.6V28.3h-5.6V65.6z M267.3,29.1c-1.6-1-3.5-1.5-5.8-1.5c-2.5,0-4.9,0.7-6.9,2c-2.8,1.9-4.3,4.5-4.3,7.8 c0,4.1,2.5,7.3,7.6,9.4c2.5,1.1,4.1,1.7,4.6,2c0.5,0.2,1.1,0.6,1.7,1c1.7,1.2,2.6,2.8,2.6,4.9c0,1.6-0.5,3-1.5,4.2 c-1.2,1.3-2.7,2-4.6,2c-1.1,0-2.2-0.3-3.2-0.8s-1.7-1.2-2.2-2.1c-0.5-0.8-0.8-2.2-1.1-4.1l-5.7,1.3c0.4,2.5,1.1,4.5,2.2,6 c2.3,3.3,5.5,5,9.7,5c3.3,0,6-1,8.2-3c2.5-2.3,3.8-5.3,3.8-8.9c0-2.5-0.7-4.6-2.1-6.4c-1.3-1.7-3.6-3.3-6.7-4.5 c-2.5-1-3.9-1.6-4.4-1.8s-1-0.5-1.6-0.9c-1.2-0.8-1.8-1.8-1.8-3.1s0.5-2.4,1.5-3.2c1-0.9,2.3-1.4,4-1.4c1.6,0,2.8,0.4,3.8,1.3 c0.5,0.5,1.1,1.2,1.8,2.3l4.6-2.7C270.4,31.7,268.9,30.1,267.3,29.1 M238.5,29.1c-1.6-1-3.5-1.5-5.8-1.5c-2.5,0-4.9,0.7-6.9,2 c-2.8,1.9-4.3,4.5-4.3,7.8c0,4.1,2.5,7.3,7.6,9.4c2.5,1.1,4.1,1.7,4.6,2c0.5,0.2,1.1,0.6,1.7,1c1.7,1.2,2.6,2.8,2.6,4.9 c0,1.6-0.5,3-1.5,4.2c-1.2,1.3-2.7,2-4.6,2c-1.1,0-2.2-0.3-3.2-0.8s-1.7-1.2-2.2-2.1c-0.5-0.8-0.8-2.2-1.1-4.1l-5.7,1.3 c0.4,2.5,1.1,4.5,2.2,6c2.3,3.3,5.5,5,9.7,5c3.3,0,6-1,8.2-3c2.5-2.3,3.8-5.3,3.8-8.9c0-2.5-0.7-4.6-2.1-6.4 c-1.3-1.7-3.5-3.3-6.7-4.5c-2.5-1-3.9-1.6-4.4-1.8s-1-0.5-1.6-0.9c-1.2-0.8-1.8-1.8-1.8-3.1s0.5-2.4,1.5-3.2c1-0.9,2.3-1.4,4-1.4 c1.6,0,2.8,0.4,3.8,1.3c0.5,0.5,1.1,1.2,1.8,2.3l4.6-2.7C241.6,31.7,240.1,30.1,238.5,29.1 M193.4,51.2l5.8-12.7l5.5,12.7H193.4z M210.9,65.6h6.1L199.2,26l-18.5,39.6h6.1l4.2-9.1h16L210.9,65.6z M142.1,65.6l4-22.5l10.8,24.3l11-24.2l3.6,22.5h5.8l-7-40.1 l-13.2,29l-12.8-29l-7.8,40.1L142.1,65.6L142.1,65.6z"></path> </g> <g> <polygon class="st2" points="52.6,53.7 44.8,76.9 38.8,76.9 53.5,35.6 62,65.5 80.4,35.6 81.1,76.9 75.1,76.9 75.1,53.7 59.8,78.7 "></polygon> <g> <path class="st1" d="M64.8,123.2c1.9,0.7,4.8,0.1,7.5-1.9c1.4-1,2.5-2.2,3.2-3.4c0.4,0.1,0.9,0,1.3-0.2c0.7-0.5,0.8-1.5,0.3-2.2 s-1.5-0.9-2.2-0.3c-0.7,0.5-0.8,1.5-0.3,2.2c0,0.1,0.1,0.1,0.1,0.2c-0.7,1.3-1.8,2.5-3.3,3.6C69.2,122.8,66.6,123.5,64.8,123.2 M1.9,69.7c-1.4-2.4-1.9-5-1.4-6.8c-0.9,1.8-0.6,4.8,1.1,7.7c0.9,1.5,1.9,2.7,3,3.5c-0.1,0.4-0.1,0.9,0.1,1.3 c0.4,0.7,1.4,1,2.1,0.6s1-1.4,0.6-2.1s-1.4-1-2.1-0.6c-0.1,0-0.1,0.1-0.2,0.1C3.9,72.5,2.8,71.3,1.9,69.7 M61.9,0.7 c2.8,0,5.3,0.9,6.6,2.2C67.4,1.2,64.6,0,61.3,0c-1.7,0-3.3,0.3-4.6,0.9c-0.3-0.3-0.7-0.5-1.2-0.5C54.7,0.3,54,1,54,1.9 s0.7,1.6,1.6,1.6c0.9,0,1.6-0.7,1.6-1.6c0-0.1,0-0.1,0-0.2C58.4,1.1,60,0.7,61.9,0.7 M115.8,61.7c0,5.9-5.3,11.2-14.1,15.3 c-2.1-4.8-5-10-8.6-15.2c3.7-5.3,6.6-10.5,8.7-15.3C110.4,50.5,115.8,55.9,115.8,61.7 M100.6,44c-2.9-1.1-6-2.2-9.3-3 c-0.6-1.8-1.4-3.4-2.5-4.8c-1.7-2.2-4-3.8-6.9-5c-0.8-3.2-1.8-6.1-2.9-8.8c9-3.3,16.6-3.3,20.7,0.8C104,27.4,104,34.9,100.6,44 M76.5,21.3c-4.9,2.1-10.1,5-15.3,8.7C56,26.4,50.8,23.5,46,21.4c4-8.8,9.4-14.2,15.3-14.2C67.2,7.3,72.5,12.6,76.5,21.3 M43.5,22.5c-1.9,4.9-3.5,10.6-4.7,16.8c-6.3,1.1-12,2.7-16.9,4.7c-3.3-9-3.3-16.5,0.9-20.7C26.9,19.2,34.4,19.2,43.5,22.5 M20.8,46.5c2.1,4.9,5,10,8.6,15.3C25.9,67,23,72.2,20.9,77c-8.8-4-14.1-9.4-14.1-15.3C6.8,55.9,12.1,50.5,20.8,46.5 M21.9,79.5 c4.9,2,10.6,3.5,16.9,4.7c1.1,6.3,2.7,12,4.7,16.9c-9,3.3-16.6,3.3-20.7-0.8S18.6,88.6,21.9,79.5 M46,102.1 c4.8-2.1,10-5,15.2-8.6c5.3,3.7,10.4,6.6,15.3,8.7c-4,8.7-9.4,14-15.2,14C55.4,116.2,50.1,110.9,46,102.1 M65.1,29.5 c4.2-2.7,8.3-4.8,12.2-6.4c1,2.3,1.8,4.8,2.6,7.4c-2.9-0.8-6.2-1.3-10-1.3C68.3,29.3,66.7,29.3,65.1,29.5 M63.4,33.7 c1.6,1.2,3.3,2.5,4.9,3.8c-2.3-0.1-4.6-0.2-7-0.2c-2.1,0-4.2,0.1-6.3,0.1C57.5,35.6,60.3,34.3,63.4,33.7 M40.6,39 c1.1-5.9,2.7-11.3,4.6-15.8c4.3,1.8,9,4.3,13.8,7.4c-4.8,1.2-9,3.4-12.5,6.4c-0.5,0.4-1,0.8-1.4,1.3C43.5,38.5,42.1,38.7,40.6,39 M40.3,40.8c0.9-0.2,1.9-0.3,2.9-0.5c-1.3,1.5-2.5,3.2-3.6,5C39.8,43.7,40,42.2,40.3,40.8 M22.6,45.7c4.6-1.9,10-3.5,15.9-4.7 c-0.4,2.7-0.8,5.5-1.1,8.4c-0.5,1.2-1,2.4-1.4,3.7c-2,2.3-3.8,4.7-5.5,7.1C27.1,55.3,24.4,50.3,22.6,45.7 M34.3,59.6 c-0.4,1.8-0.6,3.4-0.7,5c-0.7-0.9-1.4-1.9-2-2.8c1-1.5,2.1-2.9,3.3-4.4C34.7,58.1,34.5,58.8,34.3,59.6 M38.5,82.4 c-6-1.1-11.3-2.7-15.9-4.6c1.9-4.6,4.5-9.5,7.9-14.5c0.9,1.3,1.9,2.6,2.9,3.9c-0.1,5.4,1.1,9.8,3.7,13.2c0.4,0.5,0.9,1.1,1.3,1.5 C38.5,82.1,38.5,82.2,38.5,82.4 M59.7,92.5c-5,3.4-9.9,6-14.5,7.9c-1.9-4.6-3.5-9.9-4.6-15.9c0.5,0.1,1,0.2,1.5,0.2 c3,1.7,6.8,2.7,11.3,2.9C55.5,89.4,57.6,91,59.7,92.5 M71.1,37.7c-1.8-1.5-3.6-3-5.4-4.4c0.8-0.1,1.6-0.1,2.4-0.1 c5.1,0,8.9,1.8,11.4,5.4C76.8,38.2,74,37.9,71.1,37.7 M80.6,40.5c1.2,2.4,1.9,5.2,2,8.4c-1.3-1.5-2.7-2.9-4.1-4.3 c-1.8-1.8-3.5-3.4-5.3-5C75.8,39.8,78.2,40.1,80.6,40.5 M59.1,83.5c-6.4,0-11-2.3-13.6-6.9S42.4,65.5,44,57.2 c1.5-7.6,4.4-13.5,8.6-17.7c0.1-0.1,0.2-0.2,0.3-0.2c2.7-0.2,5.5-0.3,8.3-0.3c3.1,0,6.2,0.1,9.2,0.3c2.3,2,4.6,4.2,6.9,6.4 c1.9,1.9,3.7,3.8,5.3,5.7c-0.1,2.6-0.4,5.4-1,8.5c-1.5,7.4-4.2,13.1-8.2,17.3C69.5,81.4,64.7,83.5,59.1,83.5 M73.3,83.9 c0.9-0.8,1.8-1.6,2.6-2.4c1-0.7,1.9-1.4,2.9-2.2c1.7-1.4,3.2-3,4.6-4.7c-0.3,2.8-0.7,5.5-1.1,8.1C79.4,83.2,76.4,83.6,73.3,83.9 M82,84.5c-1.1,5.8-2.6,11-4.5,15.5c-5-3.4-7.3-9-8.3-12.4c0.7-0.6,1.4-1.2,2.1-1.8C74.9,85.5,78.5,85.1,82,84.5 M89.5,63.8 c0.3-0.9,0.6-1.8,0.9-2.7c0.2,0.2,0.4,0.5,0.5,0.7C90.5,62.5,90,63.1,89.5,63.8 M99.9,77.8c-4.6,1.9-9.9,3.5-15.9,4.6 c0.5-3.3,1-6.8,1.2-10.4c0.3-0.4,0.5-0.8,0.8-1.3c2.1-2.5,4.1-5,5.9-7.5C95.4,68.3,98,73.2,99.9,77.8 M91.9,42.9 c2.9,0.8,5.6,1.8,8.1,2.8c-1.9,4.6-4.6,9.5-8,14.6c-0.3-0.5-0.6-0.9-1-1.4c0.2-0.7,0.3-1.4,0.5-2.1 C92.6,51.4,92.7,46.8,91.9,42.9 M79.1,101c1.9-4.9,3.5-10.5,4.6-16.8c6.3-1.1,12-2.7,16.9-4.7c3.4,9.1,3.4,16.7-0.8,20.8 c-1.1,1.1-2.5,2-4.2,2.5c-2.3,0.3-5.5,0.3-10-0.1C83.2,102.6,81,101.9,79.1,101 M118.8,61.7c0-6.6-6.2-12.6-16.3-17 c4-10.3,4.2-18.9-0.5-23.6s-13.3-4.5-23.6-0.5C74,10.5,68,4.3,61.4,4.3s-12.7,6.3-17.1,16.4c-10.2-4-18.9-4.2-23.6,0.5 s-4.5,13.3-0.5,23.5C10,49.1,3.8,55.1,3.8,61.7s6.2,12.6,16.3,17c-4,10.3-4.2,18.9,0.5,23.6s13.3,4.5,23.6,0.5 c4.4,10.1,10.4,16.3,17,16.3s12.6-6.2,17-16.2c10.3,4.1,18.9,4.2,23.6-0.5s4.5-13.4,0.5-23.7C112.5,74.4,118.8,68.4,118.8,61.7 M124.1,58.9c-0.1-1.7-0.6-3.3-1.2-4.5c0.3-0.3,0.5-0.7,0.5-1.2c-0.1-0.9-0.8-1.5-1.7-1.4c-0.9,0.1-1.5,0.8-1.4,1.7 s0.8,1.5,1.7,1.4c0.1,0,0.1,0,0.2,0c0.7,1.3,1.2,2.9,1.3,4.7c0.2,2.8-0.5,5.3-1.7,6.7C123.3,65.1,124.3,62.2,124.1,58.9"></path> </g> </g> </g> <path class="st0" d="M702.7,35.9c0.5-0.3,0.9-0.7,1.2-1.2l0,1.5h2.1V23.9h-2.1v4.8c-0.3-0.4-0.7-0.8-1.2-1.1 c-0.5-0.3-1.1-0.5-1.8-0.5c-0.5,0-1,0.1-1.5,0.3c-0.5,0.2-0.9,0.5-1.3,0.9c-0.4,0.4-0.7,0.9-0.9,1.5c-0.2,0.6-0.3,1.2-0.3,2v0 c0,0.7,0.1,1.4,0.4,2c0.2,0.6,0.5,1.1,0.9,1.5c0.4,0.4,0.8,0.7,1.3,0.9c0.5,0.2,1,0.3,1.5,0.3C701.6,36.4,702.2,36.3,702.7,35.9 M700.4,34.4c-0.3-0.1-0.6-0.3-0.8-0.6c-0.2-0.2-0.4-0.5-0.6-0.9c-0.1-0.4-0.2-0.7-0.2-1.2v0c0-0.4,0.1-0.8,0.2-1.2 c0.1-0.4,0.3-0.7,0.6-0.9c0.2-0.2,0.5-0.4,0.8-0.6c0.3-0.1,0.6-0.2,1-0.2c0.3,0,0.7,0.1,1,0.2c0.3,0.1,0.6,0.3,0.8,0.6 c0.2,0.2,0.4,0.5,0.6,0.9c0.1,0.4,0.2,0.7,0.2,1.2v0c0,0.4-0.1,0.8-0.2,1.2c-0.1,0.3-0.3,0.7-0.6,0.9c-0.2,0.3-0.5,0.4-0.8,0.6 c-0.3,0.1-0.6,0.2-1,0.2C701,34.6,700.7,34.6,700.4,34.4 M694.3,36.3c0.3-0.1,0.6-0.2,0.8-0.3v-1.7c-0.4,0.2-0.8,0.3-1.3,0.3 c-0.3,0-0.6-0.1-0.8-0.3c-0.2-0.2-0.3-0.5-0.3-0.9v-4.4h2.4v-1.8h-2.4v-2.4h-2.1v2.4h-1.1v1.8h1.1v4.7c0,0.5,0.1,0.9,0.2,1.2 c0.1,0.3,0.3,0.6,0.5,0.8c0.2,0.2,0.5,0.3,0.8,0.4c0.3,0.1,0.7,0.1,1,0.1C693.7,36.4,694,36.3,694.3,36.3 M680.1,36.2h8.3v-1.9h-6.2 v-9.9h-2.1V36.2z M667.8,38.6c1.5-0.8,2.7-1.9,3.5-3c0.8-1.2,1.2-2.6,1.2-4.2c0-1.6-0.4-3-1.2-4.2c-0.8-1.2-2-2.2-3.5-3l-0.9,1.4 c1.2,0.8,2.1,1.7,2.7,2.6c0.6,0.9,0.9,2,0.9,3.3c0,0.6-0.1,1.2-0.2,1.8c-0.1,0.5-0.4,1-0.7,1.5c-0.3,0.5-0.7,0.9-1.1,1.4 c-0.4,0.4-1,0.8-1.6,1.2L667.8,38.6z M660.1,38.8c0.3-0.1,0.5-0.2,0.8-0.4c0.2-0.2,0.4-0.5,0.6-0.8c0.2-0.3,0.4-0.7,0.6-1.2l3.5-9.2 h-2.1l-2.3,6.6l-2.5-6.6h-2.2l3.7,8.9c-0.2,0.4-0.3,0.7-0.5,0.8c-0.2,0.1-0.4,0.2-0.7,0.2c-0.2,0-0.4,0-0.6-0.1 c-0.2-0.1-0.4-0.1-0.6-0.2l-0.7,1.5c0.3,0.2,0.6,0.3,1,0.4s0.7,0.1,1.1,0.1C659.5,39,659.8,38.9,660.1,38.8 M654.4,36.3 c0.3-0.1,0.6-0.2,0.8-0.3v-1.7c-0.4,0.2-0.8,0.3-1.3,0.3c-0.3,0-0.6-0.1-0.8-0.3c-0.2-0.2-0.3-0.5-0.3-0.9v-4.4h2.4v-1.8h-2.4v-2.4 h-2.1v2.4h-1.1v1.8h1.1v4.7c0,0.5,0.1,0.9,0.2,1.2c0.1,0.3,0.3,0.6,0.5,0.8c0.2,0.2,0.5,0.3,0.8,0.4c0.3,0.1,0.7,0.1,1,0.1 C653.7,36.4,654.1,36.3,654.4,36.3 M639.3,36.2h2.1v-3.8h2.4c0.7,0,1.3-0.1,1.8-0.3c0.6-0.2,1.1-0.4,1.5-0.8c0.4-0.3,0.8-0.8,1-1.3 c0.2-0.5,0.4-1.1,0.4-1.7v0c0-0.6-0.1-1.1-0.3-1.6c-0.2-0.5-0.5-0.9-0.9-1.2c-0.4-0.3-0.9-0.6-1.4-0.8c-0.6-0.2-1.2-0.3-1.9-0.3 h-4.7V36.2z M641.4,30.6v-4.3h2.4c0.8,0,1.4,0.2,1.9,0.5c0.5,0.4,0.7,0.9,0.7,1.6v0c0,0.6-0.2,1.1-0.7,1.5c-0.5,0.4-1.1,0.6-1.9,0.6 H641.4z M637,37.2c-1.2-0.8-2.1-1.6-2.7-2.6c-0.6-0.9-0.9-2-0.9-3.3c0-0.6,0.1-1.2,0.2-1.8c0.1-0.5,0.4-1,0.6-1.5 c0.3-0.5,0.7-0.9,1.1-1.4c0.4-0.4,1-0.8,1.6-1.2l-0.9-1.4c-1.5,0.8-2.7,1.9-3.5,3c-0.8,1.2-1.2,2.6-1.2,4.2c0,1.6,0.4,3,1.2,4.2 c0.8,1.2,2,2.2,3.5,3L637,37.2z"></path> </svg> 