<svg xmlns="http://www.w3.org/2000/svg" width="199" height="72" viewBox="0 0 199 72">
    <g fill="none" fill-rule="evenodd">
        <path fill="#FFC700" d="M134.519 38.14h-5.92c10.093 5.387 5.53 21.013 16.162 21.208v.01c.034 0 .064-.005.098-.005.033 0 .063.005.097.005v-.01c10.632-.195 6.07-15.821 16.162-21.209h-26.6z"/>
        <path fill="#6B6680" d="M121.089 55.126c7.46 0 7.46-16.987 14.919-16.987H106.17c7.46 0 7.46 16.987 14.919 16.987"/>
        <path fill="#F94250" d="M110.779 38.139H81.086v3.82h13.319c10.788 0 13.046 5.983 19.131 6.298 6.316-.073 10.314-4.439 15.063-10.118h-17.82zM113.632 48.264c-.033-.001-.064-.005-.096-.007-.054 0-.106.007-.161.007h.257z"/>
        <path fill="#66C2A4" d="M151.099 19.37c-6.292 0-9.287 18.769-15.58 18.769h29.839c-6.292 0-7.967-18.769-14.259-18.769"/>
        <path fill="#34AFB0" d="M138.862 30.006c-3.763.302-5.452 3.08-10.263 8.133h24.185c-6.87 0-8.199-7.988-13.878-8.133h-.044z"/>
        <path fill="#FFF" d="M142.33 38.139h-5.34c6.928.12 4.49 8.493 8.449 8.493 3.832 0 1.729-7.193 7.288-8.493h-4.21"/>
        <g fill="#234B9F">
            <path d="M6.534 67.238h-.911c-.228 1.043-.983 1.726-2.05 1.726a2.054 2.054 0 0 1-1.475-.6c-.54-.55-.6-1.138-.6-2.924s.06-2.373.6-2.924c.372-.384.911-.6 1.474-.6 1.068 0 1.799.683 2.027 1.726h.935c-.288-1.606-1.427-2.541-2.962-2.541-.839 0-1.606.312-2.182.887-.803.803-.803 1.642-.803 3.452s0 2.649.803 3.452a3.043 3.043 0 0 0 2.182.887c1.523 0 2.686-.935 2.962-2.54zM10.61 63.738c.72 0 1.283.264 1.69.671.6.612.72 1.439.72 2.35 0 .91-.12 1.738-.72 2.349-.407.408-.97.671-1.69.671s-1.283-.263-1.69-.671c-.6-.611-.72-1.438-.72-2.349 0-.911.12-1.738.72-2.35.407-.407.97-.671 1.69-.671zm0 .767c-.42 0-.791.156-1.067.432-.432.431-.48 1.163-.48 1.822 0 .66.048 1.39.48 1.821.276.276.647.432 1.067.432.42 0 .803-.156 1.079-.432.432-.43.468-1.162.468-1.821 0-.66-.036-1.39-.468-1.822a1.512 1.512 0 0 0-1.079-.432zM17.084 69.708v-.744h-.467c-.6 0-.792-.287-.792-.863v-6.928h-.863v6.964c0 .9.468 1.57 1.499 1.57h.623zM20.765 69.708v-.744h-.468c-.599 0-.79-.287-.79-.863v-6.928h-.864v6.964c0 .9.468 1.57 1.499 1.57h.623zM24.144 63.738c1.523 0 2.422 1.103 2.422 2.853v.396h-3.98c0 1.294.611 2.037 1.738 2.037.683 0 1.079-.204 1.547-.671l.587.515c-.6.6-1.15.911-2.158.911-1.559 0-2.578-.935-2.578-3.02 0-1.906.924-3.021 2.422-3.021zm0 .731c-.623 0-1.15.348-1.379.887-.132.324-.156.504-.18.983h3.118c-.024-.48-.048-.659-.18-.983-.228-.54-.755-.887-1.379-.887zM30.367 63.738c.647 0 1.175.144 1.654.767v-.695h.851v6.077c0 1.463-.911 2.53-2.458 2.53-.887 0-1.378-.228-2.002-.792l.564-.551c.431.383.731.587 1.414.587 1.14 0 1.619-.803 1.619-1.81v-.923c-.48.612-1.019.768-1.654.768-.6 0-1.116-.216-1.427-.528-.588-.588-.72-1.498-.72-2.457 0-.96.132-1.87.72-2.458.311-.311.84-.515 1.439-.515zm.18.767c-1.283 0-1.475 1.103-1.475 2.206 0 1.102.192 2.205 1.474 2.205 1.283 0 1.463-1.103 1.463-2.205 0-1.103-.18-2.206-1.463-2.206zM37.248 63.738c1.523 0 2.422 1.103 2.422 2.853v.396h-3.98c0 1.294.611 2.037 1.738 2.037.684 0 1.08-.204 1.547-.671l.587.515c-.6.6-1.15.911-2.158.911-1.558 0-2.578-.935-2.578-3.02 0-1.906.924-3.021 2.422-3.021zm0 .731c-.623 0-1.15.348-1.378.887-.132.324-.156.504-.18.983h3.117c-.024-.48-.048-.659-.18-.983-.228-.54-.755-.887-1.379-.887zM46.828 63.738c.72 0 1.282.264 1.69.671.6.612.72 1.439.72 2.35 0 .91-.12 1.738-.72 2.349-.408.408-.97.671-1.69.671s-1.283-.263-1.69-.671c-.6-.611-.72-1.438-.72-2.349 0-.911.12-1.738.72-2.35.407-.407.97-.671 1.69-.671zm0 .767c-.42 0-.792.156-1.067.432-.432.431-.48 1.163-.48 1.822 0 .66.048 1.39.48 1.821.275.276.647.432 1.067.432.42 0 .803-.156 1.079-.432.431-.43.467-1.162.467-1.821 0-.66-.036-1.39-.467-1.822a1.513 1.513 0 0 0-1.08-.432zM53.518 64.505v-.659h-1.26v-1.09c0-.54.24-.864.792-.864h.468v-.743h-.624c-1.007 0-1.498.707-1.498 1.582v1.115h-.756v.659h.756v5.203h.863v-5.203h1.259zM61.167 61.173l3.129 8.535h-.971l-.684-1.93h-3.728l-.684 1.93h-.97l3.14-8.535h.768zm-.372 1.307l-1.606 4.507h3.188l-1.582-4.507zM68.168 63.738c.6 0 1.127.204 1.44.515.599.6.718 1.583.718 2.506 0 .923-.12 1.906-.719 2.505-.312.312-.84.515-1.439.515-.647 0-1.187-.156-1.666-.767v3.332h-.863V63.81h.863v.695c.48-.623 1.019-.767 1.666-.767zm-.18.767c-1.282 0-1.486 1.103-1.486 2.254 0 1.15.204 2.253 1.487 2.253 1.282 0 1.474-1.103 1.474-2.253 0-1.15-.192-2.254-1.474-2.254zM74.822 63.738c.6 0 1.127.204 1.439.515.6.6.72 1.583.72 2.506 0 .923-.12 1.906-.72 2.505-.312.312-.84.515-1.439.515-.647 0-1.187-.156-1.666-.767v3.332h-.863V63.81h.863v.695c.48-.623 1.019-.767 1.666-.767zm-.18.767c-1.282 0-1.486 1.103-1.486 2.254 0 1.15.204 2.253 1.487 2.253 1.282 0 1.474-1.103 1.474-2.253 0-1.15-.192-2.254-1.474-2.254zM81.045 69.708v-.744h-.468c-.6 0-.791-.287-.791-.863v-6.928h-.863v6.964c0 .9.467 1.57 1.498 1.57h.624zM82.627 69.708h.864V63.81h-.864zM87.879 63.738c1.522 0 2.42 1.103 2.42 2.853v.396h-3.98c0 1.294.612 2.037 1.74 2.037.683 0 1.078-.204 1.546-.671l.588.515c-.6.6-1.152.911-2.159.911-1.558 0-2.577-.935-2.577-3.02 0-1.906.923-3.021 2.422-3.021zm0 .731c-.624 0-1.151.348-1.38.887-.131.324-.155.504-.18.983h3.118c-.024-.48-.048-.659-.18-.983-.228-.54-.755-.887-1.378-.887zM96.63 61.173v8.535h-.85V69c-.48.623-1.032.78-1.679.78-.6 0-1.127-.204-1.439-.516-.6-.6-.72-1.582-.72-2.505 0-.923.12-1.906.72-2.506.312-.311.84-.515 1.44-.515.646 0 1.186.144 1.665.755v-3.32h.864zm-2.337 3.332c-1.283 0-1.487 1.103-1.487 2.254 0 1.15.204 2.253 1.487 2.253 1.283 0 1.474-1.103 1.474-2.253 0-1.15-.191-2.254-1.474-2.254zM105.347 61.173c1.558 0 2.637.97 2.637 2.505 0 1.534-1.079 2.517-2.637 2.517h-2.266v3.513h-.912v-8.535zm-.084.815h-2.182v3.392h2.182c1.067 0 1.81-.575 1.81-1.702 0-1.126-.743-1.69-1.81-1.69zM113.823 67.982c0-1.103-.707-1.499-1.739-1.595l-.947-.084c-.743-.06-1.03-.36-1.03-.863 0-.599.455-.97 1.318-.97.611 0 1.15.143 1.57.467l.564-.563c-.527-.432-1.283-.636-2.122-.636-1.259 0-2.17.648-2.17 1.726 0 .971.612 1.487 1.762 1.582l.972.084c.683.06.983.348.983.863 0 .696-.6 1.043-1.57 1.043-.732 0-1.368-.192-1.835-.683l-.576.575c.648.624 1.427.851 2.422.851 1.427 0 2.398-.659 2.398-1.797zM119.781 63.81h-.935l-1.606 4.735-1.619-4.735h-.935l2.122 5.778-.42 1.15c-.191.54-.371.731-.97.731h-.264v.767h.371c.42 0 .84-.107 1.151-.407.168-.156.3-.372.42-.695l2.685-7.324zM125.225 68.904l-.588-.563c-.444.491-.791.671-1.355.671-.575 0-1.055-.227-1.367-.671-.276-.384-.383-.839-.383-1.582 0-.744.107-1.199.383-1.582.312-.444.792-.672 1.367-.672.564 0 .911.168 1.355.66l.588-.552c-.612-.66-1.128-.875-1.943-.875-1.487 0-2.614 1.007-2.614 3.021 0 2.014 1.127 3.02 2.614 3.02.815 0 1.33-.215 1.943-.875zM131.626 69.708V65.92c0-1.33-.79-2.182-2.122-2.182-.66 0-1.222.228-1.654.72v-3.285h-.863v8.535h.863v-3.645c0-1.018.587-1.558 1.475-1.558.887 0 1.438.528 1.438 1.558v3.645h.863zM135.943 63.738c.719 0 1.283.264 1.69.671.6.612.72 1.439.72 2.35 0 .91-.12 1.738-.72 2.349-.407.408-.971.671-1.69.671-.72 0-1.283-.263-1.691-.671-.6-.611-.72-1.438-.72-2.349 0-.911.12-1.738.72-2.35.408-.407.971-.671 1.69-.671zm0 .767c-.42 0-.792.156-1.068.432-.431.431-.479 1.163-.479 1.822 0 .66.048 1.39.48 1.821.275.276.647.432 1.067.432.42 0 .803-.156 1.079-.432.431-.43.467-1.162.467-1.821 0-.66-.036-1.39-.467-1.822a1.512 1.512 0 0 0-1.08-.432zM142.417 69.708v-.744h-.468c-.6 0-.791-.287-.791-.863v-6.928h-.863v6.964c0 .9.467 1.57 1.498 1.57h.624zM145.857 63.738c.72 0 1.283.264 1.69.671.6.612.72 1.439.72 2.35 0 .91-.12 1.738-.72 2.349-.407.408-.97.671-1.69.671-.719 0-1.282-.263-1.69-.671-.6-.611-.72-1.438-.72-2.349 0-.911.12-1.738.72-2.35.408-.407.971-.671 1.69-.671zm0 .767c-.42 0-.79.156-1.067.432-.431.431-.479 1.163-.479 1.822 0 .66.048 1.39.48 1.821.275.276.647.432 1.066.432.42 0 .804-.156 1.08-.432.431-.43.467-1.162.467-1.821 0-.66-.036-1.39-.468-1.822a1.512 1.512 0 0 0-1.079-.432zM152.08 63.738c.647 0 1.175.144 1.654.767v-.695h.852v6.077c0 1.463-.912 2.53-2.458 2.53-.887 0-1.379-.228-2.002-.792l.563-.551c.432.383.732.587 1.415.587 1.139 0 1.618-.803 1.618-1.81v-.923c-.48.612-1.019.768-1.654.768-.6 0-1.115-.216-1.427-.528-.587-.588-.72-1.498-.72-2.457 0-.96.133-1.87.72-2.458.312-.311.84-.515 1.439-.515zm.18.767c-1.283 0-1.475 1.103-1.475 2.206 0 1.102.192 2.205 1.475 2.205 1.283 0 1.462-1.103 1.462-2.205 0-1.103-.18-2.206-1.462-2.206zM161.012 63.81h-.935l-1.607 4.735-1.618-4.735h-.936l2.123 5.778-.42 1.15c-.192.54-.372.731-.971.731h-.264v.767h.371c.42 0 .84-.107 1.152-.407.167-.156.3-.372.42-.695l2.685-7.324zM5.886 47.754v-.815H.036v.815h2.47v7.72h.91v-7.72zM12.085 55.474v-3.788c0-1.33-.792-2.182-2.122-2.182-.66 0-1.223.228-1.655.72v-3.285h-.863v8.535h.863V51.83c0-1.019.587-1.558 1.475-1.558.887 0 1.438.527 1.438 1.558v3.644h.864zM16.4 49.504c1.523 0 2.422 1.103 2.422 2.853v.395h-3.98c0 1.295.612 2.038 1.739 2.038.683 0 1.079-.204 1.546-.67l.588.514c-.6.6-1.151.911-2.159.911-1.558 0-2.577-.934-2.577-3.02 0-1.906.923-3.02 2.422-3.02zm0 .731c-.623 0-1.15.348-1.378.888-.132.323-.156.503-.18.982h3.117c-.024-.479-.048-.659-.18-.982-.227-.54-.755-.888-1.378-.888zM29.181 53.124c0-.707-.252-1.294-.72-1.69-.359-.311-.755-.48-1.558-.6l-.935-.143c-.444-.072-.887-.24-1.15-.467-.265-.228-.385-.564-.385-.983 0-.947.66-1.583 1.799-1.583.899 0 1.463.252 1.99.731l.587-.587c-.73-.66-1.45-.935-2.541-.935-1.69 0-2.734.959-2.734 2.41 0 .683.216 1.21.648 1.594.371.323.899.539 1.57.647l.995.156c.624.096.84.168 1.115.408.276.239.408.623.408 1.066 0 .995-.767 1.582-2.014 1.582-.96 0-1.619-.227-2.326-.935l-.624.624c.804.803 1.643 1.126 2.926 1.126 1.774 0 2.95-.922 2.95-2.42zM33.15 49.504c.72 0 1.282.264 1.69.671.6.612.72 1.439.72 2.35 0 .91-.12 1.738-.72 2.35-.408.407-.97.67-1.69.67s-1.283-.263-1.69-.67c-.6-.612-.72-1.44-.72-2.35 0-.911.12-1.738.72-2.35.407-.407.97-.67 1.69-.67zm0 .768c-.42 0-.792.155-1.067.43-.432.433-.48 1.164-.48 1.823 0 .66.048 1.39.48 1.822.275.276.647.431 1.066.431.42 0 .804-.155 1.08-.431.431-.432.467-1.163.467-1.822 0-.66-.036-1.39-.467-1.822a1.512 1.512 0 0 0-1.08-.431zM42.106 55.474v-5.898h-.864v3.632c0 1.03-.587 1.57-1.474 1.57-.888 0-1.44-.527-1.44-1.57v-3.632h-.862v3.764c0 .683.18 1.246.6 1.654.359.36.886.551 1.522.551.66 0 1.247-.251 1.666-.731v.66h.852zM46.65 55.474v-.744h-.456c-.552 0-.804-.323-.804-.863v-3.595h1.26v-.66h-1.26v-1.846h-.863v1.846h-.743v.66h.743v3.62c0 .874.504 1.582 1.51 1.582h.613zM53.124 55.474v-3.788c0-1.33-.792-2.182-2.123-2.182-.659 0-1.223.228-1.654.72v-3.285h-.863v8.535h.863V51.83c0-1.019.587-1.558 1.474-1.558.888 0 1.44.527 1.44 1.558v3.644h.863zM61.42 46.94l3.129 8.534h-.971l-.683-1.93h-3.73l-.682 1.93h-.972l3.142-8.535h.767zm-.372 1.306l-1.606 4.506h3.189l-1.583-4.506zM68.206 50.272v-.66h-1.26v-1.09c0-.54.24-.864.792-.864h.468v-.743h-.624c-1.007 0-1.498.707-1.498 1.583v1.114h-.756v.66h.756v5.202h.863v-5.202h1.259zM73.709 50.056c-.42-.42-.851-.552-1.415-.552-.683 0-1.33.3-1.654.791v-.719h-.864v5.898h.864v-3.62c0-.9.551-1.582 1.414-1.582.456 0 .696.107 1.02.43l.635-.646zM74.944 55.474h.863v-5.898h-.863zM82.329 54.67l-.588-.563c-.443.491-.79.671-1.355.671-.575 0-1.054-.227-1.366-.67-.276-.385-.384-.84-.384-1.583s.108-1.199.384-1.583c.312-.443.791-.67 1.366-.67.564 0 .912.167 1.355.659l.588-.552c-.612-.659-1.127-.875-1.943-.875-1.486 0-2.613 1.007-2.613 3.02 0 2.015 1.127 3.021 2.613 3.021.816 0 1.331-.216 1.943-.874zM85.791 49.504c1.583 0 2.362.683 2.362 1.966v4.004h-.863v-.564c-.48.48-.911.635-1.703.635-.815 0-1.294-.155-1.666-.539-.288-.287-.444-.731-.444-1.199 0-1.03.72-1.702 2.038-1.702h1.775v-.563c0-.863-.432-1.295-1.51-1.295-.756 0-1.14.18-1.487.672l-.588-.54c.528-.683 1.127-.875 2.086-.875zm1.499 3.248h-1.655c-.887 0-1.319.36-1.319 1.043 0 .684.42 1.007 1.355 1.007.504 0 .947-.036 1.319-.395.204-.192.3-.528.3-1.019v-.636zM95.01 55.474v-3.776c0-.683-.191-1.235-.61-1.642-.36-.36-.876-.552-1.511-.552-.66 0-1.235.24-1.655.72v-.648h-.863v5.898h.863v-3.632c0-1.031.575-1.57 1.463-1.57.887 0 1.45.527 1.45 1.57v3.632h.864z"/>
        </g>
        <path fill="#234B9F" d="M82.58 62.132h.97v-.97h-.97zM74.895 47.898h.972v-.97h-.972z"/>
        <path fill="#F94250" d="M163.364 30.65c-5.706 0-5.851 7.489-11.556 7.489h23.147c-5.705 0-5.886-7.49-11.591-7.49"/>
        <path fill="#6B6680" d="M0 41.96h40.44v-3.822H0z"/>
        <path fill="#66C2A4" d="M39.997 41.96h41.679v-3.821h-41.68z"/>
        <path fill="#52016A" d="M135.52 38.139h17.264c-5.35 0-7.34-4.845-10.642-7.057-1.953 3.8-4.002 7.057-6.622 7.057"/>
        <path fill="#FA1B31" d="M151.808 38.139h13.55c-2.395 0-4.12-2.72-5.686-6.087-2.518 2.168-3.737 6.087-7.864 6.087"/>
        <path fill="#812C92" d="M128.599 38.139H106.17c4.195 0 6.03 5.373 8.161 10.075 5.86-.417 9.723-4.64 14.268-10.075"/>
        <path fill="#242D30" d="M136.008 38.139h-7.41a11.698 11.698 0 0 1 3.148 2.441c1.132-1.47 2.483-2.441 4.262-2.441"/>
        <path fill="#2A353D" d="M19.541 5.055a90.814 90.814 0 0 1-.261-3.12C17.566 1.258 16.026.774 14.662.484a20.533 20.533 0 0 0-4.284-.436c-1.429 0-2.714.226-3.856.677-1.143.453-2.119 1.065-2.928 1.839a7.852 7.852 0 0 0-1.856 2.733 8.802 8.802 0 0 0-.643 3.363c0 1.354.214 2.523.643 3.507a7.731 7.731 0 0 0 1.832 2.588c.793.742 1.745 1.395 2.856 1.959a37.24 37.24 0 0 0 3.714 1.62c2.094.775 3.705 1.646 4.832 2.613 1.126.968 1.69 2.29 1.69 3.967a5.63 5.63 0 0 1-.381 2.08 5.171 5.171 0 0 1-1.143 1.742c-.508.516-1.142.92-1.904 1.21-.762.29-1.65.435-2.666.435-2.254 0-4.007-.548-5.26-1.645-1.254-1.096-2.278-2.806-3.07-5.128-.16-.387-.342-.669-.548-.846-.207-.177-.5-.267-.88-.267-.318 0-.588.049-.81.146a78.46 78.46 0 0 1 .667 3.773c.19 1.258.333 2.564.428 3.919 1.11.677 2.467 1.226 4.07 1.645 1.602.418 3.387.629 5.356.629 1.872 0 3.475-.242 4.808-.726 1.333-.484 2.419-1.153 3.26-2.008a7.924 7.924 0 0 0 1.857-3c.397-1.144.595-2.377.595-3.7 0-2.193-.722-4.04-2.166-5.54s-3.69-2.861-6.736-4.087c-2.444-1-4.293-1.984-5.546-2.951-1.254-.968-1.88-2.209-1.88-3.725 0-.71.15-1.355.452-1.936A4.527 4.527 0 0 1 6.379 3.46a5.376 5.376 0 0 1 1.785-.92 7.344 7.344 0 0 1 2.166-.314c1.967 0 3.523.42 4.665 1.258 1.143.84 2.126 2.177 2.952 4.015.095.194.238.372.428.533.19.161.492.242.905.242a3.9 3.9 0 0 0 .714-.097 33.24 33.24 0 0 1-.453-3.12zm25.968 23.44c.127.29.19.532.19.725 0 .42-.254.734-.76.943-.509.21-1.175.396-2 .557-.095 0-.199.056-.31.169-.111.113-.166.315-.166.605 0 .193.031.452.095.774.92-.065 1.952-.121 3.094-.17a73.022 73.022 0 0 1 3.047-.072c.857 0 1.777.024 2.761.072.983.049 1.983.105 3 .17.062-.322.094-.58.094-.774 0-.29-.056-.492-.166-.605a1.147 1.147 0 0 0-.453-.266 9.23 9.23 0 0 1-1.951-.532c-.667-.258-1.095-.613-1.286-1.064L39.178.097A2.59 2.59 0 0 0 38.607 0c-.38 0-.683.274-.905.822L26.23 28.882a2.19 2.19 0 0 1-1.071 1.136c-.493.242-1.23.444-2.214.605-.254.032-.421.13-.5.29a1.3 1.3 0 0 0-.119.58c0 .26.031.517.095.775.73-.097 1.429-.162 2.095-.194a39.965 39.965 0 0 1 1.952-.048c.92 0 1.856.024 2.808.072.953.049 1.857.105 2.714.17.063-.322.095-.58.095-.774 0-.194-.04-.363-.119-.508-.08-.146-.23-.234-.452-.266-1.936-.29-2.904-.774-2.904-1.452 0-.257.079-.58.238-.967l3.047-7.789H42.51l2.998 7.982zm-12.805-9.967L37.32 6.676l4.428 11.852h-9.045zm43.32 13.86a63.872 63.872 0 0 0 4.76-.604 46.99 46.99 0 0 1 .952-4.064 76.48 76.48 0 0 1 1.143-3.725 1.407 1.407 0 0 0-.405-.169 1.853 1.853 0 0 0-.5-.073c-.54 0-.92.242-1.142.726-.381.968-.786 1.83-1.214 2.588a6.83 6.83 0 0 1-1.571 1.911c-.62.516-1.397.912-2.333 1.185-.936.275-2.087.412-3.451.412-1.714 0-3.325-.37-4.832-1.113-1.508-.742-2.825-1.79-3.95-3.145-1.128-1.354-2.024-2.967-2.69-4.838-.667-1.87-1-3.918-1-6.143 0-2 .261-3.814.785-5.443.524-1.628 1.301-3.023 2.333-4.185 1.03-1.16 2.3-2.063 3.808-2.709 1.507-.644 3.244-.967 5.213-.967 2.348 0 4.141.452 5.379 1.354 1.238.904 2.142 2.42 2.713 4.548.064.29.198.468.405.532.206.065.436.097.69.097.254 0 .508-.065.762-.194a42.657 42.657 0 0 1-.762-3.822c-.19-1.257-.302-2.322-.333-3.193a65.963 65.963 0 0 0-2.38-.604 27.504 27.504 0 0 0-4.832-.678A52.813 52.813 0 0 0 70.692 0c-2.666 0-4.998.492-6.998 1.475-2 .985-3.658 2.258-4.975 3.822a15.985 15.985 0 0 0-2.951 5.25c-.65 1.934-.976 3.853-.976 5.756 0 2.29.325 4.427.976 6.41.65 1.984 1.634 3.71 2.951 5.177 1.317 1.467 2.976 2.62 4.975 3.459 2 .838 4.332 1.258 6.998 1.258a60.02 60.02 0 0 0 5.332-.218zm31.894-3.894c.126.29.19.533.19.726 0 .42-.254.734-.761.943-.508.21-1.175.396-2 .557-.095 0-.198.056-.309.169-.112.113-.167.315-.167.605 0 .193.032.452.096.774.92-.065 1.951-.121 3.094-.17a73.047 73.047 0 0 1 3.047-.072c.856 0 1.776.024 2.76.072.984.049 1.984.105 3 .17.063-.322.095-.58.095-.774 0-.29-.056-.492-.167-.605a1.147 1.147 0 0 0-.452-.266 9.237 9.237 0 0 1-1.952-.532c-.666-.258-1.095-.613-1.285-1.064L101.587.097a2.59 2.59 0 0 0-.572-.097c-.38 0-.682.274-.904.822l-11.473 28.06a2.19 2.19 0 0 1-1.07 1.136c-.493.242-1.231.444-2.214.605-.255.032-.421.13-.5.29a1.3 1.3 0 0 0-.12.58c0 .26.032.517.096.775.73-.097 1.428-.162 2.095-.194a39.962 39.962 0 0 1 1.951-.048c.92 0 1.857.024 2.809.072.952.049 1.856.105 2.713.17.064-.322.096-.58.096-.774 0-.194-.04-.363-.12-.508-.079-.146-.23-.234-.451-.266-1.937-.29-2.905-.774-2.905-1.452 0-.257.08-.58.238-.967l3.047-7.789h10.616l2.999 7.982zm-12.805-9.966L99.73 6.676l4.427 11.852h-9.044zm36.75-.145c1.618 0 3.07-.273 4.356-.822 1.285-.548 2.363-1.25 3.237-2.105a9.017 9.017 0 0 0 1.999-2.878c.46-1.064.69-2.112.69-3.144 0-2.613-.857-4.741-2.57-6.386C137.86 1.403 135.29.58 131.863.58h-6.713c-.888 0-1.832-.024-2.832-.072-1-.049-1.944-.104-2.832-.17-.064.259-.096.5-.096.726 0 .516.159.807.477.871 1.268.161 2.15.387 2.641.677.492.29.738.758.738 1.403V28.64c0 .645-.214 1.088-.642 1.33-.429.242-1.278.492-2.547.75-.318.065-.476.322-.476.774 0 .193.031.452.095.774.92-.065 1.904-.121 2.951-.17a61.666 61.666 0 0 1 2.81-.072c1.363 0 2.633.024 3.807.072 1.174.049 2.221.105 3.142.17.064-.322.096-.597.096-.822 0-.484-.19-.758-.572-.823-1.397-.193-2.444-.443-3.142-.75-.698-.306-1.047-.83-1.047-1.572v-9.918h4.142zM127.72 16.4V2.564h2.523c1.333 0 2.444.193 3.332.58.889.387 1.603.912 2.143 1.573.539.661.92 1.426 1.142 2.298.222.87.333 1.806.333 2.806 0 2.387-.603 4.08-1.809 5.08s-2.92 1.499-5.14 1.499h-2.524z"/>
    </g>
</svg>
